<svg width="216" height="58" viewBox="0 0 216 58" fill="none" xmlns="http://www.w3.org/2000/svg">
<g clip-path="url(#clip0_62_178)">
<path d="M8.39388 8.61202V24.1202L4.15574 28.1749L0 24.153V8.64481L4.19105 4.63388L8.39388 8.61202ZM8.60579 33.8579V49.3661L4.36764 53.4208L0.211907 49.3989V33.8907L4.40296 29.8798L8.60579 33.8579ZM9.22973 0H25.9351L30.3027 3.93443L25.9822 7.79235H9.27683L4.95627 3.89071L9.22973 0ZM9.27683 50.2186H25.9822L30.3498 54.153L26.0293 58.0109H9.31214L4.99159 54.1202L9.27683 50.2186ZM18.8362 32.765H17.706L13.3855 28.8743L17.6707 24.9836H22.5328V25.0601H25.6408L30.0084 28.9945L25.6879 32.8525H18.8362V32.765ZM35 33.8579V49.3661L30.7619 53.4208L26.6061 49.3989V33.8907L30.7972 29.8798L35 33.8579Z" fill="#C9FFB2"/>
</g>
<g clip-path="url(#clip1_62_178)">
<path d="M52.0717 8.92725V24.3194L48.0359 28.3437L44.0785 24.3628L44 0.0759304L52.0717 8.92725ZM52.2735 33.9843L52.4753 53.9323L48.4395 57.9566L44.4821 53.9757L44.2803 34.0277L48.2713 30.0468L52.2735 33.9843ZM45.435 0L68.7758 0.390499L72.935 4.29549L68.8206 8.12456H52.9126L45.435 0ZM52.7556 25.1764H68.6637L72.8229 29.0814L68.7085 32.9104H52.7892L48.6749 29.0488L52.7556 25.1764ZM73.2937 58L56.9484 39.7442L56.8251 34.1361L62.5426 34.2121L78.8879 52.4571L79.0112 57.9892H73.2937V58ZM77.3632 8.89471V24.2869L73.3274 28.3112L69.37 24.3303V8.92725L73.361 4.94632L77.3632 8.89471Z" fill="#C9FFB2"/>
</g>
<path d="M98.3774 8.56522V23.9891L94.6525 28.0217L91 24.0217V8.59783L94.6835 4.6087L98.3774 8.56522ZM98.5636 33.6739V49.2391L94.8387 53.2717L91.1862 49.2826V33.7065L94.8698 29.7174L98.5636 33.6739ZM98.9982 24.837H108L111.839 28.75L108.041 32.587H99.0396L95.2422 28.7065L98.9982 24.837ZM99.112 0H113.794L117.633 3.91304L113.836 7.75H99.1534L95.3457 3.86957L99.112 0ZM99.5155 50.25L121.161 50.1304L125 54.0435L121.203 57.8804L99.5569 58L95.7596 54.1304L99.5155 50.25Z" fill="#C9FFB2"/>
<path d="M98.529 25L95.1388 28.8043L98.529 32.6087H114.512L117.902 28.8043L114.512 25H98.529Z" fill="#C9FFB2"/>
<path d="M143.594 8.56522V23.9891L139.76 28.0217L136 24.0217V8.59783L139.792 4.6087L143.594 8.56522ZM143.786 33.6739V49.2391L139.952 53.2717L136.192 49.2826V33.7065L139.984 29.7174L143.786 33.6739ZM144.233 24.837H153.5L157.452 28.75L153.543 32.587H144.276L140.367 28.7065L144.233 24.837ZM144.351 0H159.465L163.416 3.91304L159.507 7.75H144.393L140.474 3.86957L144.351 0ZM144.766 50.25L167.048 50.1304L171 54.0435L167.091 57.8804L144.809 58L140.9 54.1304L144.766 50.25Z" fill="#C9FFB2"/>
<path d="M143.75 25L140.26 28.8043L143.75 32.6087H160.203L163.693 28.8043L160.203 25H143.75Z" fill="#C9FFB2"/>
<path d="M188.008 4.07615V24.1273L184.47 28.2034L181 24.1603V4.10911L184.499 0.0769085L188.008 4.07615ZM188.185 33.9167V53.9238L184.646 58L181.177 53.9678V33.9496L184.676 29.9174L188.185 33.9167ZM202.505 23.1824L189.128 8.88843L189.158 3.20818L194.17 3.43891L207.557 17.7329L207.518 23.3362L202.505 23.1824ZM215.961 3.99924V24.0504L212.422 28.1265L208.953 24.0943V4.0322L212.462 0L215.961 3.99924ZM216 33.7958V53.803L212.462 57.8791L208.992 53.8469V33.8397L212.491 29.8075L216 33.7958Z" fill="#C9FFB2"/>
<defs>
<clipPath id="clip0_62_178">
<rect width="35" height="58" fill="white"/>
</clipPath>
<clipPath id="clip1_62_178">
<rect width="35" height="58" fill="white" transform="translate(44)"/>
</clipPath>
</defs>
</svg>
