<svg width="25" height="20" viewBox="0 0 25 20" fill="none" xmlns="http://www.w3.org/2000/svg">
<path fill-rule="evenodd" clip-rule="evenodd" d="M0.903204 5.27975C0.541352 8.64182 0.557481 12.5194 1.061 15.8678C1.33961 17.7206 2.85173 19.1409 4.71828 19.3032L6.66899 19.4728C10.7365 19.8264 14.827 19.8263 18.8946 19.4728L20.8453 19.3032C22.7118 19.1409 24.2239 17.7206 24.5025 15.8678C25.0061 12.5194 25.0222 8.64204 24.6604 5.27995C24.6136 4.89018 24.561 4.50093 24.5025 4.11233C24.2239 2.25958 22.7118 0.839201 20.8453 0.676946L18.8946 0.507374C14.827 0.153792 10.7365 0.153792 6.66899 0.507374L4.71827 0.676946C2.85173 0.839201 1.33961 2.25958 1.061 4.11233C1.00258 4.50086 0.949978 4.89004 0.903204 5.27975ZM6.83678 2.43759C10.7927 2.09372 14.7709 2.09372 18.7268 2.43759L20.6775 2.60717C21.6518 2.69186 22.4412 3.4333 22.5866 4.40044C22.6017 4.50088 22.6164 4.60136 22.6307 4.70189L15.4477 8.69243C13.7897 9.61352 11.7737 9.61352 10.1158 8.69242L2.93287 4.70194C2.94716 4.6014 2.96186 4.5009 2.97696 4.40044C3.1224 3.4333 3.91172 2.69186 4.88607 2.60717L6.83678 2.43759ZM22.8678 6.7866C23.1183 9.71578 23.0246 12.667 22.5866 15.5797C22.4412 16.5468 21.6518 17.2883 20.6775 17.373L18.7268 17.5425C14.7709 17.8864 10.7926 17.8864 6.83678 17.5425L4.88607 17.373C3.91172 17.2883 3.1224 16.5468 2.97696 15.5797C2.53897 12.6671 2.44525 9.71581 2.69579 6.78664L9.17482 10.3861C11.418 11.6323 14.1455 11.6323 16.3886 10.3861L22.8678 6.7866Z" fill="white"/>
</svg>
