<svg width="25" height="24" viewBox="0 0 25 24" fill="none" xmlns="http://www.w3.org/2000/svg">
<path fill-rule="evenodd" clip-rule="evenodd" d="M3.78705 9.14189C6.17014 14.3311 10.4108 18.4566 15.6825 20.6921L15.6991 20.6991L16.7175 21.1531C18.0144 21.7309 19.5387 21.3205 20.3701 20.1697L22.0693 17.8181C22.1731 17.6744 22.1463 17.4747 22.0084 17.3634L19.0421 14.9704C18.8946 14.8514 18.6778 14.8791 18.565 15.0313L17.4105 16.5892C17.1301 16.9675 16.6238 17.099 16.1948 16.9048C12.2529 15.1209 9.0853 11.9533 7.30139 8.01142C7.10724 7.58241 7.2387 7.07607 7.61704 6.7957L9.17487 5.64122C9.32709 5.52841 9.3548 5.31157 9.23584 5.16411L6.84245 2.19739C6.73121 2.0595 6.53155 2.03272 6.38791 2.13641L4.02352 3.84329C2.86513 4.67954 2.45719 6.21667 3.04847 7.51727L3.78626 9.14015C3.78652 9.14073 3.78679 9.14131 3.78705 9.14189ZM14.8933 22.5298C9.16523 20.0984 4.55808 15.6143 1.96868 9.97467L1.96712 9.97128L1.22779 8.34499C0.242321 6.17732 0.922225 3.61545 2.85287 2.22169L5.21726 0.514815C6.22275 -0.21106 7.62039 -0.0235873 8.39905 0.941604L10.7924 3.90833C11.6252 4.94056 11.4312 6.45842 10.3657 7.24807L9.47301 7.90961C10.9809 10.8355 13.3707 13.2253 16.2966 14.7332L16.9581 13.8405C17.7478 12.775 19.2657 12.581 20.2979 13.4138L23.2642 15.8068C24.2297 16.5857 24.4169 17.9839 23.6904 18.9894L21.9913 21.341C20.6055 23.259 18.065 23.9429 15.9036 22.98L14.8933 22.5298Z" fill="white"/>
</svg>
