<svg width="327" height="43" viewBox="0 0 327 43" fill="none" xmlns="http://www.w3.org/2000/svg">
<g opacity="0.55" filter="url(#filter0_f_62_55)">
<g clip-path="url(#clip0_62_55)">
<path d="M10.737 12.098V19.4158L8.85014 21.3291L7 19.4313V12.1134L8.86586 10.2208L10.737 12.098ZM10.8313 24.0108V31.3287L8.94448 33.242L7.09434 31.3442V24.0263L8.9602 22.1336L10.8313 24.0108ZM11.1091 8.03418H18.5463L20.4908 9.89073L18.5673 11.7112H11.1301L9.20654 9.8701L11.1091 8.03418ZM11.1301 31.7309H18.5673L20.5118 33.5875L18.5883 35.4079H11.1458L9.22226 33.572L11.1301 31.7309ZM15.3859 23.4951H14.8827L12.9592 21.6592L14.867 19.8233H17.0316V19.8594H18.4153L20.3598 21.7159L18.4363 23.5363H15.3859V23.4951ZM22.582 24.0108V31.3287L20.6952 33.242L18.8451 31.3442V24.0263L20.7109 22.1336L22.582 24.0108Z" fill="#87FF55"/>
</g>
<g clip-path="url(#clip1_62_55)">
<path d="M30.5511 12.2467V19.5098L28.7543 21.4088L26.9925 19.5303L26.9575 8.07001L30.5511 12.2467ZM30.6409 24.0704L30.7307 33.4833L28.934 35.3823L27.1721 33.5038L27.0823 24.0909L28.8591 22.2124L30.6409 24.0704ZM27.5964 8.03418L37.9877 8.21845L39.8394 10.0611L38.0077 11.8679H30.9254L27.5964 8.03418ZM30.8555 19.9142H37.9378L39.7895 21.7569L37.9578 23.5637H30.8705L29.0388 21.7415L30.8555 19.9142ZM39.9991 35.4028L32.7222 26.7883L32.6673 24.1421L35.2127 24.1779L42.4896 32.7872L42.5445 35.3977H39.9991V35.4028ZM41.8109 12.2313V19.4945L40.0141 21.3935L38.2523 19.515V12.2467L40.0291 10.3682L41.8109 12.2313Z" fill="#87FF55"/>
</g>
<g clip-path="url(#clip2_62_55)">
<path d="M50.9046 12.0759V19.354L49.1975 21.2569L47.5236 19.3694V12.0913L49.2117 10.2089L50.9046 12.0759ZM50.99 23.924V31.2688L49.2829 33.1716L47.6089 31.2893V23.9394L49.2971 22.057L50.99 23.924ZM51.1891 19.7541H55.3146L57.0739 21.6005L55.3336 23.4111H51.2081L49.4678 21.58L51.1891 19.7541ZM51.2413 8.03418H57.9701L59.7294 9.88064L57.9891 11.6912H51.2602L49.5152 9.86012L51.2413 8.03418ZM51.4262 31.7458L61.3464 31.6893L63.1056 33.5358L61.3653 35.3464L51.4452 35.4028L49.7049 33.5768L51.4262 31.7458Z" fill="#87FF55"/>
<path d="M50.9741 19.8309L49.4204 21.6261L50.9741 23.4213H58.2989L59.8526 21.6261L58.2989 19.8309H50.9741Z" fill="#87FF55"/>
</g>
<g clip-path="url(#clip3_62_55)">
<path d="M71.4707 12.0759V19.354L69.7636 21.2569L68.0897 19.3694V12.0913L69.7779 10.2089L71.4707 12.0759ZM71.5561 23.924V31.2688L69.849 33.1716L68.1751 31.2893V23.9394L69.8632 22.057L71.5561 23.924ZM71.7552 19.7541H75.8807L77.64 21.6005L75.8997 23.4111H71.7742L70.0339 21.58L71.7552 19.7541ZM71.8074 8.03418H78.5362L80.2955 9.88064L78.5552 11.6912H71.8264L70.0813 9.86012L71.8074 8.03418ZM71.9923 31.7458L81.9125 31.6893L83.6718 33.5358L81.9315 35.3464L72.0113 35.4028L70.271 33.5768L71.9923 31.7458Z" fill="#87FF55"/>
<path d="M71.5402 19.8309L69.9865 21.6261L71.5402 23.4213H78.865L80.4188 21.6261L78.865 19.8309H71.5402Z" fill="#87FF55"/>
</g>
<g clip-path="url(#clip4_62_55)">
<path d="M91.5379 9.9576V19.4192L89.9626 21.3426L88.418 19.4347V9.97316L89.9757 8.07047L91.5379 9.9576ZM91.6166 24.0385V33.4793L90.0414 35.4028L88.4967 33.5001V24.0541L90.0545 22.1514L91.6166 24.0385ZM97.9921 18.9733L92.0367 12.2284L92.0498 9.54803L94.2815 9.65691L100.241 16.4018L100.224 19.0459L97.9921 18.9733ZM103.983 9.92131V19.3829L102.407 21.3063L100.863 19.4036V9.93686L102.425 8.03418L103.983 9.92131ZM104 23.9815V33.4223L102.425 35.3457L100.88 33.4431V24.0022L102.438 22.0995L104 23.9815Z" fill="#87FF55"/>
</g>
</g>
<g filter="url(#filter1_d_62_55)">
<g clip-path="url(#clip5_62_55)">
<path d="M12.5974 11.1148V17.7994L10.781 19.547L9 17.8135V11.1289L10.7962 9.40007L12.5974 11.1148ZM12.6882 21.9966V28.6812L10.8718 30.4289L9.09082 28.6953V22.0108L10.887 20.2819L12.6882 21.9966ZM12.9556 7.40271H20.115L21.9869 9.09858L20.1352 10.7615H12.9758L11.1241 9.07974L12.9556 7.40271ZM12.9758 29.0486H20.1352L22.0071 30.7445L20.1554 32.4074H12.9909L11.1393 30.7304L12.9758 29.0486ZM17.0727 21.5256H16.5883L14.7366 19.8485L16.5732 18.1715H18.6569V18.2045H19.9889L21.8607 19.9004L20.0091 21.5633H17.0727V21.5256ZM24 21.9966V28.6812L22.1837 30.4289L20.4026 28.6953V22.0108L22.1988 20.2819L24 21.9966Z" fill="#87FF55"/>
</g>
<g clip-path="url(#clip6_62_55)">
<path d="M31.6714 11.2507V17.8852L29.9417 19.6198L28.2457 17.9039L28.212 7.43544L31.6714 11.2507ZM31.7578 22.0511L31.8443 30.6494L30.1147 32.384L28.4186 30.6681L28.3322 22.0698L30.0426 20.3539L31.7578 22.0511ZM28.827 7.40271L38.8302 7.57103L40.6127 9.25422L38.8494 10.9047H32.0317L28.827 7.40271ZM31.9644 18.2546H38.7822L40.5647 19.9378L38.8014 21.5882H31.9789L30.2156 19.9237L31.9644 18.2546ZM40.7665 32.4027L33.7614 24.5338L33.7085 22.1166L36.1589 22.1493L43.164 30.0135L43.2168 32.398H40.7665V32.4027ZM42.5106 11.2366V17.8712L40.7809 19.6058L39.0849 17.8899V11.2507L40.7953 9.53475L42.5106 11.2366Z" fill="#87FF55"/>
</g>
<g clip-path="url(#clip7_62_55)">
<path d="M51.2646 11.0946V17.7429L49.6213 19.481L48.0099 17.7569V11.1087L49.635 9.38922L51.2646 11.0946ZM51.3468 21.9173V28.6265L49.7035 30.3647L48.0921 28.6452V21.9314L49.7172 20.2119L51.3468 21.9173ZM51.5385 18.1083H55.5099L57.2035 19.795L55.5282 21.4488H51.5568L49.8815 19.7762L51.5385 18.1083ZM51.5887 7.40271H58.0662L59.7598 9.08937L58.0845 10.7432H51.607L49.9271 9.07063L51.5887 7.40271ZM51.7668 29.0622L61.3164 29.0107L63.0099 30.6973L61.3346 32.3512L51.785 32.4027L50.1097 30.7348L51.7668 29.0622Z" fill="#87FF55"/>
<path d="M51.3316 18.1786L49.8358 19.8184L51.3316 21.4582H58.3827L59.8785 19.8184L58.3827 18.1786H51.3316Z" fill="#87FF55"/>
</g>
<g clip-path="url(#clip8_62_55)">
<path d="M71.0625 11.0946V17.7429L69.4192 19.481L67.8078 17.7569V11.1087L69.4329 9.38922L71.0625 11.0946ZM71.1447 21.9173V28.6265L69.5014 30.3647L67.89 28.6452V21.9314L69.5151 20.2119L71.1447 21.9173ZM71.3364 18.1083H75.3078L77.0014 19.795L75.3261 21.4488H71.3547L69.6794 19.7762L71.3364 18.1083ZM71.3866 7.40271H77.8641L79.5577 9.08937L77.8824 10.7432H71.4049L69.725 9.07063L71.3866 7.40271ZM71.5647 29.0622L81.1143 29.0107L82.8078 30.6973L81.1325 32.3512L71.5829 32.4027L69.9076 30.7348L71.5647 29.0622Z" fill="#87FF55"/>
<path d="M71.1295 18.1786L69.6337 19.8184L71.1295 21.4582H78.1806L79.6763 19.8184L78.1806 18.1786H71.1295Z" fill="#87FF55"/>
</g>
<g clip-path="url(#clip9_62_55)">
<path d="M90.3801 9.15967V17.8024L88.8637 19.5594L87.3767 17.8166V9.17388L88.8763 7.43586L90.3801 9.15967ZM90.4559 22.022V30.6457L88.9395 32.4027L87.4526 30.6647V22.0362L88.9521 20.2981L90.4559 22.022ZM96.5933 17.3951L90.8603 11.2339L90.8729 8.78555L93.0212 8.885L98.7584 15.0462L98.7415 17.4614L96.5933 17.3951ZM102.36 9.12652V17.7693L100.843 19.5262L99.3565 17.7882V9.14073L100.86 7.40271L102.36 9.12652ZM102.377 21.9699V30.5937L100.86 32.3506L99.3734 30.6126V21.9888L100.873 20.2508L102.377 21.9699Z" fill="#87FF55"/>
</g>
</g>
<g opacity="0.55" filter="url(#filter2_f_62_55)">
<g clip-path="url(#clip10_62_55)">
<path d="M126.162 16.2118L127.893 17.9966V30.6306L126.181 32.4201L124.43 30.616V17.982L126.162 16.2118ZM128.54 16.9607H128.073L126.283 15.2247L128.053 13.4934H130.062V13.5275H131.346L133.15 15.2781L131.365 16.9948H128.54V16.9607ZM128.54 16.9607H128.073L126.283 15.2247L128.053 13.4934H130.062V13.5275H131.346L133.15 15.2781L131.365 16.9948H128.54V16.9607ZM133.617 16.1097L135.348 17.8944L135.246 28.9188L133.529 30.7035L131.778 28.8993L131.881 17.875L133.617 16.1097ZM136.564 16.9072H136.097L134.312 15.176L136.077 13.4399H138.086V13.474H139.37L141.174 15.2247L139.389 16.9413H136.564V16.9072ZM141.694 16.0416L143.425 17.8263V30.4604L141.709 32.2451L139.958 30.4409V17.8069L141.694 16.0416Z" fill="#87FF55"/>
</g>
<g clip-path="url(#clip11_62_55)">
<path d="M283.781 16.9935L285.512 18.7782V31.4122L283.801 33.2018L282.05 31.3976V18.7636L283.781 16.9935ZM286.159 17.7424H285.692L283.903 16.0063L285.673 14.2751H287.681V14.3091H288.965L290.769 16.0598L288.985 17.7764H286.159V17.7424ZM286.159 17.7424H285.692L283.903 16.0063L285.673 14.2751H287.681V14.3091H288.965L290.769 16.0598L288.985 17.7764H286.159V17.7424ZM291.236 16.8913L292.967 18.676L292.865 29.7004L291.149 31.4851L289.398 29.681L289.5 18.6566L291.236 16.8913ZM294.183 17.6889H293.716L291.932 15.9576L293.697 14.2216H295.705V14.2556H296.989L298.793 16.0063L297.009 17.7229H294.183V17.6889ZM299.314 16.8233L301.045 18.608V31.242L299.328 33.0267L297.578 31.2225V18.5885L299.314 16.8233Z" fill="#87FF55"/>
</g>
<path d="M151.323 21.5418L151.377 21.5953L151.343 30.3827L149.612 32.1674L147.88 30.3972L147.9 28.1943L147.832 28.1262L147.885 17.1359L149.617 15.3512L151.348 17.1213L151.323 21.5418ZM147.978 10.7946L149.762 9.06335L151.494 10.8335L151.46 12.7203L149.709 14.5245L147.992 12.7398L147.978 10.7946Z" fill="#87FF55"/>
<path d="M178.188 21.5418L178.241 21.5953L178.207 30.3827L176.476 32.1674L174.745 30.3972L174.764 28.1943L174.696 28.1262L174.75 17.1359L176.481 15.3512L178.212 17.1213L178.188 21.5418ZM174.842 10.7946L176.627 9.06335L178.358 10.8335L178.324 12.7203L176.573 14.5245L174.857 12.7398L174.842 10.7946Z" fill="#87FF55"/>
<g clip-path="url(#clip12_62_55)">
<path d="M157.403 15.6915L159.139 17.4762L159.192 30.6306L157.476 32.4153L155.725 30.6111L155.672 17.4616L157.403 15.6915ZM168.204 15.1712L166.419 16.9072H159.518L157.734 15.1906L159.538 13.4399H166.438L168.204 15.1712ZM168.515 15.5018L170.246 17.2866L170.299 30.5819L168.583 32.3667L166.832 30.5625L166.784 17.272L168.515 15.5018Z" fill="#87FF55"/>
</g>
<g clip-path="url(#clip13_62_55)">
<path d="M184.267 15.6915L186.003 17.4762L186.057 30.6306L184.34 32.4153L182.59 30.6111L182.536 17.4616L184.267 15.6915ZM195.068 15.1712L193.283 16.9072H186.383L184.598 15.1906L186.402 13.4399H193.303L195.068 15.1712ZM195.379 15.5018L197.11 17.2866L197.164 30.5819L195.447 32.3667L193.697 30.5625L193.648 17.272L195.379 15.5018Z" fill="#87FF55"/>
</g>
<g clip-path="url(#clip14_62_55)">
<path d="M205.028 28.0192V28.486L203.297 30.2707L201.561 28.5054V26.497H201.595V25.2083L203.346 23.4042L205.062 25.1889V28.0143H205.028V28.0192ZM205.043 20.0974V20.5642L203.311 22.3489L201.58 20.5788V18.5704H201.614V17.2866L203.365 15.4824L205.082 17.2671V20.0925H205.043V20.0974ZM205.286 21.138H212.186L213.991 22.8887L212.206 24.6053H205.305L203.521 22.8741L205.286 21.138ZM205.339 13.4399H212.24L214.044 15.1906L212.259 16.9072H205.359L203.569 15.1712L205.339 13.4399ZM205.529 29.0063H212.43L214.234 30.757L212.449 32.4736H205.548L203.764 30.7424L205.529 29.0063ZM215.95 20.146V20.6128L214.219 22.3975L212.488 20.6274V18.619H212.522V17.3401L214.273 15.5359L215.989 17.3206V20.146H215.95Z" fill="#87FF55"/>
</g>
<g clip-path="url(#clip15_62_55)">
<path d="M235.547 11.1433V18.039L233.796 19.8431L232.079 18.0584V11.1578L233.811 9.37313L235.547 11.1433ZM235.634 22.3767L235.688 31.0426L233.937 32.8467L232.22 31.062L232.167 22.3913L233.898 20.6066L235.634 22.3767ZM236.466 10.4673H235.994L234.209 8.73122L235.98 7H237.988V7.03404H239.272L241.076 8.78471L239.291 10.5013H236.466V10.4673ZM237.054 21.8564H236.587L234.803 20.1203L236.573 18.3891H238.581V18.4231H239.86L241.664 20.1738L239.88 21.8904H237.054V21.8564Z" fill="#87FF55"/>
</g>
<g clip-path="url(#clip16_62_55)">
<path d="M246.702 26.5443V26.0775L248.434 24.2928L250.165 26.0629V28.0713H250.136V29.3551L248.385 31.1593L246.668 29.3697V26.5443H246.702ZM257.119 17.6889H250.223L248.419 15.9382L250.204 14.2216H257.104L258.889 15.9528L257.119 17.6889ZM257.313 33.2553H250.413L248.609 31.5046L250.393 29.788H257.294L259.079 31.5192L257.313 33.2553ZM257.362 25.5572H250.466L248.662 23.8065L250.447 22.0899H257.347L259.132 23.8211L257.362 25.5572ZM257.605 26.5978V26.131L259.336 24.3463L261.068 26.1164V28.1248H261.034V29.4086L259.283 31.2128L257.566 29.4281V26.6027H257.605V26.5978ZM257.625 18.676V18.2092L259.356 16.4245L261.087 18.1946V20.203H261.053V21.4868L259.302 23.291L257.586 21.5063V18.676H257.625Z" fill="#87FF55"/>
</g>
<g clip-path="url(#clip17_62_55)">
<path d="M268.924 18.1897V30.9113L267.173 32.7155L265.457 30.9308V18.2092L267.188 16.4245L268.924 18.1897ZM269.099 14.2216H276L277.804 15.9722L276.019 17.6889H269.114L267.329 15.9528L269.099 14.2216Z" fill="#87FF55"/>
</g>
<g clip-path="url(#clip18_62_55)">
<path d="M308.801 20.879V21.3458L307.069 23.1305L305.333 21.3653V19.3569H305.367V18.0682L307.118 16.264L308.835 18.0536V20.879H308.801ZM309.044 21.9197H315.944L317.748 23.6703L315.964 25.387H309.058L307.274 23.6557L309.044 21.9197ZM309.097 14.2216H315.998L317.802 15.9722L316.017 17.6889H309.112L307.327 15.9528L309.097 14.2216ZM309.287 29.788H316.187L317.992 31.5386L316.207 33.2553H309.301L307.517 31.524L309.287 29.788ZM319.961 28.6257V29.0925L318.23 30.8773L316.499 29.1071V27.0987H316.533V25.8149L318.283 24.0107L320 25.7954V28.6208H319.961V28.6257Z" fill="#87FF55"/>
</g>
</g>
<g clip-path="url(#clip19_62_55)">
<path d="M129.109 16.332L130.787 18.062V30.3084L129.127 32.043L127.43 30.2942V18.0478L129.109 16.332ZM131.414 17.0579H130.961L129.226 15.3751L130.942 13.697H132.889V13.73H134.133L135.882 15.427L134.152 17.0909H131.414V17.0579ZM131.414 17.0579H130.961L129.226 15.3751L130.942 13.697H132.889V13.73H134.133L135.882 15.427L134.152 17.0909H131.414V17.0579ZM136.335 16.233L138.013 17.963L137.914 28.6491L136.25 30.3791L134.553 28.6303L134.652 17.9441L136.335 16.233ZM139.191 17.0061H138.739L137.009 15.328L138.72 13.6451H140.667V13.6781H141.911L143.66 15.3751L141.93 17.0391H139.191V17.0061ZM144.164 16.167L145.843 17.897V30.1434L144.179 31.8733L142.482 30.1245V17.8781L144.164 16.167Z" fill="#87FF55"/>
</g>
<g clip-path="url(#clip20_62_55)">
<path d="M281.892 17.0896L283.571 18.8195V31.0659L281.911 32.8006L280.214 31.0518V18.8054L281.892 17.0896ZM284.197 17.8155H283.745L282.01 16.1327L283.726 14.4546H285.673V14.4876H286.917L288.666 16.1845L286.936 17.8485H284.197V17.8155ZM284.197 17.8155H283.745L282.01 16.1327L283.726 14.4546H285.673V14.4876H286.917L288.666 16.1845L286.936 17.8485H284.197V17.8155ZM289.119 16.9906L290.797 18.7205L290.698 29.4067L289.034 31.1366L287.337 29.3878L287.436 18.7017L289.119 16.9906ZM291.975 17.7636H291.523L289.793 16.0855L291.504 14.4027H293.451V14.4357H294.695L296.444 16.1327L294.714 17.7966H291.975V17.7636ZM296.948 16.9246L298.626 18.6545V30.901L296.962 32.6309L295.265 30.8821V18.6357L296.948 16.9246Z" fill="#87FF55"/>
</g>
<path d="M153.498 21.4983L153.55 21.5501L153.517 30.0679L151.839 31.7979L150.161 30.0821L150.18 27.9467L150.114 27.8807L150.166 17.2276L151.844 15.4976L153.522 17.2135L153.498 21.4983ZM150.255 11.0808L151.985 9.40271L153.663 11.1185L153.63 12.9475L151.933 14.6963L150.269 12.9663L150.255 11.0808Z" fill="#87FF55"/>
<path d="M179.539 21.4983L179.591 21.5501L179.558 30.0679L177.879 31.7979L176.201 30.0821L176.22 27.9467L176.154 27.8807L176.206 17.2276L177.884 15.4976L179.562 17.2135L179.539 21.4983ZM176.296 11.0808L178.026 9.40271L179.704 11.1185L179.671 12.9475L177.974 14.6963L176.31 12.9663L176.296 11.0808Z" fill="#87FF55"/>
<g clip-path="url(#clip21_62_55)">
<path d="M159.391 15.8276L161.074 17.5576L161.126 30.3084L159.462 32.0383L157.765 30.2895L157.713 17.5434L159.391 15.8276ZM169.861 15.3232L168.131 17.0061H161.442L159.712 15.3421L161.461 13.6451H168.149L169.861 15.3232ZM170.162 15.6438L171.84 17.3737L171.892 30.2612L170.228 31.9912L168.531 30.2424L168.484 17.3596L170.162 15.6438Z" fill="#87FF55"/>
</g>
<g clip-path="url(#clip22_62_55)">
<path d="M185.432 15.8276L187.114 17.5576L187.166 30.3084L185.502 32.0383L183.805 30.2895L183.753 17.5434L185.432 15.8276ZM195.901 15.3232L194.171 17.0061H187.482L185.752 15.3421L187.501 13.6451H194.19L195.901 15.3232ZM196.203 15.6438L197.881 17.3737L197.933 30.2612L196.269 31.9912L194.572 30.2424L194.524 17.3596L196.203 15.6438Z" fill="#87FF55"/>
</g>
<g clip-path="url(#clip23_62_55)">
<path d="M205.555 27.7771V31L204 32L202.227 31L202.194 26.3017H202.227V25.0525L203.924 23.3037L205.588 25.0336V27.7724H205.555V27.7771ZM205.57 20.0983V20.5508L203.891 22.2808L202.213 20.565V18.6182H202.246V17.3737L203.943 15.6249L205.607 17.3549V20.0936H205.57V20.0983ZM205.805 21.1071H212.494L214.243 22.804L212.513 24.468H205.824L204.094 22.7899L205.805 21.1071ZM205.857 13.6451H212.546L214.295 15.3421L212.565 17.0061H205.876L204.141 15.3232L205.857 13.6451ZM216.143 20.1455V20.598L214.464 22.3279L212.786 20.6121V18.6653H212.819V17.4256L214.516 15.6768L216.18 17.4067V20.1455H216.143Z" fill="#87FF55"/>
</g>
<path d="M216 29L214.5 28L213 29L213 31L214.5 32L216 31L216 29Z" fill="#87FF55"/>
<g clip-path="url(#clip24_62_55)">
<path d="M235.138 11.4189V18.103L233.441 19.8518L231.777 18.1219V11.433L233.455 9.70304L235.138 11.4189ZM235.223 22.3077L235.274 30.7077L233.578 32.4565L231.914 30.7265L231.862 22.3218L233.54 20.5919L235.223 22.3077ZM236.029 10.7636H235.571L233.841 9.08082L235.557 7.40271H237.504V7.43571H238.749L240.497 9.13267L238.767 10.7966H236.029V10.7636ZM236.599 21.8033H236.147L234.417 20.1205L236.132 18.4424H238.079V18.4754H239.319L241.068 20.1724L239.338 21.8363H236.599V21.8033Z" fill="#87FF55"/>
</g>
<g clip-path="url(#clip25_62_55)">
<path d="M245.951 26.3474V25.8949L247.629 24.165L249.307 25.8808V27.8276H249.279V29.072L247.582 30.8208L245.918 29.0861V26.3474H245.951ZM256.048 17.7636H249.364L247.615 16.0667L249.345 14.4027H256.034L257.764 16.0808L256.048 17.7636ZM256.237 32.8525H249.548L247.799 31.1555L249.529 29.4915H256.218L257.948 31.1696L256.237 32.8525ZM256.284 25.3905H249.6L247.851 23.6936L249.581 22.0296H256.27L258 23.7077L256.284 25.3905ZM256.519 26.3993V25.9468L258.198 24.2168L259.876 25.9326V27.8794H259.843V29.1239L258.146 30.8727L256.482 29.1427V26.404H256.519V26.3993ZM256.538 18.7205V18.268L258.216 16.5381L259.895 18.2539V20.2007H259.862V21.4451L258.165 23.1939L256.501 21.464V18.7205H256.538Z" fill="#87FF55"/>
</g>
<g clip-path="url(#clip26_62_55)">
<path d="M267.491 18.2492V30.5804L265.794 32.3292L264.13 30.5993V18.268L265.808 16.5381L267.491 18.2492ZM267.661 14.4027H274.35L276.098 16.0997L274.369 17.7636H267.675L265.945 16.0808L267.661 14.4027Z" fill="#87FF55"/>
</g>
<g clip-path="url(#clip27_62_55)">
<path d="M306.144 20.8559V21.3084L304.466 23.0384L302.783 21.3273V19.3805H302.816V18.1313L304.513 16.3825L306.177 18.1172V20.8559H306.144ZM306.38 21.8646H313.069L314.818 23.5616L313.088 25.2256H306.394L304.664 23.5475L306.38 21.8646ZM306.432 14.4027H313.121L314.869 16.0997L313.139 17.7636H306.446L304.716 16.0808L306.432 14.4027ZM306.616 29.4915H313.304L315.053 31.1885L313.323 32.8525H306.63L304.9 31.1744L306.616 29.4915ZM316.962 28.3649V28.8175L315.284 30.5474L313.606 28.8316V26.8848H313.639V25.6404L315.336 23.8916L317 25.6215V28.3602H316.962V28.3649Z" fill="#87FF55"/>
</g>
<path d="M213 26L214.5 27L213 28L208 28L206.5 27L208 26L213 26Z" fill="#87FF55"/>
<path d="M206 32L204 33.5L205.5 35H212.5L214.5 33.5L212.5 32H206Z" fill="#87FF55"/>
<defs>
<filter id="filter0_f_62_55" x="0" y="1.03418" width="111" height="41.3687" filterUnits="userSpaceOnUse" color-interpolation-filters="sRGB">
<feFlood flood-opacity="0" result="BackgroundImageFix"/>
<feBlend mode="normal" in="SourceGraphic" in2="BackgroundImageFix" result="shape"/>
<feGaussianBlur stdDeviation="3.5" result="effect1_foregroundBlur_62_55"/>
</filter>
<filter id="filter1_d_62_55" x="5" y="7.40271" width="101.377" height="33" filterUnits="userSpaceOnUse" color-interpolation-filters="sRGB">
<feFlood flood-opacity="0" result="BackgroundImageFix"/>
<feColorMatrix in="SourceAlpha" type="matrix" values="0 0 0 0 0 0 0 0 0 0 0 0 0 0 0 0 0 0 127 0" result="hardAlpha"/>
<feOffset dy="4"/>
<feGaussianBlur stdDeviation="2"/>
<feComposite in2="hardAlpha" operator="out"/>
<feColorMatrix type="matrix" values="0 0 0 0 0 0 0 0 0 0 0 0 0 0 0 0 0 0 0.25 0"/>
<feBlend mode="normal" in2="BackgroundImageFix" result="effect1_dropShadow_62_55"/>
<feBlend mode="normal" in="SourceGraphic" in2="effect1_dropShadow_62_55" result="shape"/>
</filter>
<filter id="filter2_f_62_55" x="117.43" y="0" width="209.57" height="40.2552" filterUnits="userSpaceOnUse" color-interpolation-filters="sRGB">
<feFlood flood-opacity="0" result="BackgroundImageFix"/>
<feBlend mode="normal" in="SourceGraphic" in2="BackgroundImageFix" result="shape"/>
<feGaussianBlur stdDeviation="3.5" result="effect1_foregroundBlur_62_55"/>
</filter>
<clipPath id="clip0_62_55">
<rect width="15.582" height="27.3686" fill="white" transform="translate(7 8.03418)"/>
</clipPath>
<clipPath id="clip1_62_55">
<rect width="15.582" height="27.3686" fill="white" transform="translate(26.9575 8.03418)"/>
</clipPath>
<clipPath id="clip2_62_55">
<rect width="15.582" height="27.3686" fill="white" transform="translate(47.5236 8.03418)"/>
</clipPath>
<clipPath id="clip3_62_55">
<rect width="15.582" height="27.3686" fill="white" transform="translate(68.0897 8.03418)"/>
</clipPath>
<clipPath id="clip4_62_55">
<rect width="15.582" height="27.3686" fill="white" transform="translate(88.418 8.03418)"/>
</clipPath>
<clipPath id="clip5_62_55">
<rect width="15" height="25" fill="white" transform="translate(9 7.40271)"/>
</clipPath>
<clipPath id="clip6_62_55">
<rect width="15" height="25" fill="white" transform="translate(28.212 7.40271)"/>
</clipPath>
<clipPath id="clip7_62_55">
<rect width="15" height="25" fill="white" transform="translate(48.0099 7.40271)"/>
</clipPath>
<clipPath id="clip8_62_55">
<rect width="15" height="25" fill="white" transform="translate(67.8078 7.40271)"/>
</clipPath>
<clipPath id="clip9_62_55">
<rect width="15" height="25" fill="white" transform="translate(87.3767 7.40271)"/>
</clipPath>
<clipPath id="clip10_62_55">
<rect width="18.9997" height="18.9802" fill="white" transform="translate(124.43 13.4399)"/>
</clipPath>
<clipPath id="clip11_62_55">
<rect width="18.9997" height="18.9802" fill="white" transform="translate(282.05 14.2216)"/>
</clipPath>
<clipPath id="clip12_62_55">
<rect width="14.6278" height="18.9802" fill="white" transform="translate(155.672 13.4399)"/>
</clipPath>
<clipPath id="clip13_62_55">
<rect width="14.6278" height="18.9802" fill="white" transform="translate(182.536 13.4399)"/>
</clipPath>
<clipPath id="clip14_62_55">
<rect width="14.4236" height="19.0337" fill="white" transform="translate(201.561 13.4399)"/>
</clipPath>
<clipPath id="clip15_62_55">
<rect width="9.58493" height="25.8467" fill="white" transform="translate(232.079 7)"/>
</clipPath>
<clipPath id="clip16_62_55">
<rect width="14.4236" height="19.0337" fill="white" transform="translate(246.668 14.2216)"/>
</clipPath>
<clipPath id="clip17_62_55">
<rect width="12.3422" height="18.4939" fill="white" transform="translate(265.457 14.2216)"/>
</clipPath>
<clipPath id="clip18_62_55">
<rect width="14.6667" height="19.0337" fill="white" transform="translate(305.333 14.2216)"/>
</clipPath>
<clipPath id="clip19_62_55">
<rect width="18.4168" height="18.3979" fill="white" transform="translate(127.43 13.6451)"/>
</clipPath>
<clipPath id="clip20_62_55">
<rect width="18.4168" height="18.3979" fill="white" transform="translate(280.214 14.4027)"/>
</clipPath>
<clipPath id="clip21_62_55">
<rect width="14.1791" height="18.3979" fill="white" transform="translate(157.713 13.6451)"/>
</clipPath>
<clipPath id="clip22_62_55">
<rect width="14.1791" height="18.3979" fill="white" transform="translate(183.753 13.6451)"/>
</clipPath>
<clipPath id="clip23_62_55">
<rect width="13.9811" height="18.4498" fill="white" transform="translate(202.194 13.6451)"/>
</clipPath>
<clipPath id="clip24_62_55">
<rect width="9.29087" height="25.0538" fill="white" transform="translate(231.777 7.40271)"/>
</clipPath>
<clipPath id="clip25_62_55">
<rect width="13.9811" height="18.4498" fill="white" transform="translate(245.918 14.4027)"/>
</clipPath>
<clipPath id="clip26_62_55">
<rect width="11.9636" height="17.9265" fill="white" transform="translate(264.13 14.4027)"/>
</clipPath>
<clipPath id="clip27_62_55">
<rect width="14.2168" height="18.4498" fill="white" transform="translate(302.783 14.4027)"/>
</clipPath>
</defs>
</svg>
