<svg width="423" height="699" viewBox="0 0 423 699" fill="none" xmlns="http://www.w3.org/2000/svg">
<path d="M2 62.5V21.5C2 10.4543 10.9543 1.5 22 1.5H69" stroke="white" stroke-width="3"/>
<path d="M18 48V36C18 24.9543 26.9543 16 38 16H53" stroke="white" stroke-width="3"/>
<path d="M2 636V677C2 688.046 10.9543 697 22 697H69" stroke="white" stroke-width="3"/>
<path d="M18 650.5V662.5C18 673.546 26.9543 682.5 38 682.5H53" stroke="white" stroke-width="3"/>
<path d="M421 62.5V21.5C421 10.4543 412.046 1.5 401 1.5H354" stroke="white" stroke-width="3"/>
<path d="M405 48V36C405 24.9543 396.046 16 385 16H370" stroke="white" stroke-width="3"/>
<path d="M421 636V677C421 688.046 412.046 697 401 697H354" stroke="white" stroke-width="3"/>
<path d="M405 650.5V662.5C405 673.546 396.046 682.5 385 682.5H370" stroke="white" stroke-width="3"/>
</svg>
